<svg width="25" height="38" viewBox="0 0 25 38" fill="none" xmlns="http://www.w3.org/2000/svg">
<path d="M24.2175 4.10288C23.8932 3.60624 23.4194 3.59198 22.8795 3.57572C22.8183 3.57388 22.7563 3.57201 22.6936 3.56942C22.6458 3.56722 22.5931 3.56807 22.538 3.56895C22.319 3.57247 22.0629 3.57658 21.9339 3.39261C21.7843 3.17932 21.7985 2.76712 21.8102 2.42684C21.8139 2.31931 21.8173 2.2189 21.8153 2.13428C21.7943 1.34381 21.7504 0.504116 21.4453 0.223408C21.2152 0.012798 20.5268 0.0419753 19.892 0.0688837C19.6862 0.0776067 19.486 0.0860912 19.3089 0.0860912H5.79596C5.52389 0.0860912 5.23869 0.0639371 4.95847 0.0421696C4.41245 -0.000245526 3.88533 -0.0411929 3.511 0.0860912C2.96775 0.271719 2.93096 1.24716 2.89633 2.16568L2.89446 2.21509C2.86538 2.97337 2.67746 3.55848 2.05465 3.49954C1.33029 3.4321 0.609497 3.41084 0.281987 4.06643C-0.10481 4.8421 -0.0250374 5.65406 0.117847 7.10841C0.138258 7.31616 0.159956 7.53701 0.181766 7.77274H24.4264C24.4403 7.60044 24.455 7.43035 24.4696 7.26302C24.5831 5.95455 24.682 4.8145 24.2175 4.10288Z" fill="#8047F8"/>
<path fill-rule="evenodd" clip-rule="evenodd" d="M2.06987 9.21516C2.44852 14.34 2.82304 19.4706 3.19757 24.6013L3.1978 24.6045C3.40115 27.3903 3.60451 30.1761 3.80853 32.9611H4.58212C4.63483 33.397 4.69515 33.9352 4.75874 34.5026C4.88783 35.6544 5.03044 36.9269 5.15034 37.7088H5.2359C6.02387 37.4205 11.4712 35.0921 11.4736 25.8223C11.4726 25.7959 11.4735 25.7694 11.4762 25.7432H10.1304C10.0653 25.7426 10.0021 25.7208 9.9507 25.6813C9.89927 25.6417 9.86241 25.5866 9.84577 25.5243C9.71463 25.2004 9.60888 24.8669 9.52948 24.5269C8.73777 24.974 8.10906 25.6568 7.73296 26.478C7.37594 25.637 7.32921 24.6988 7.60093 23.8272C7.87266 22.9556 8.44556 22.2062 9.21952 21.7098C9.22949 19.0048 10.2423 16.3973 12.0661 14.3808L12.0946 14.3558C12.1476 14.31 12.2155 14.2845 12.2859 14.2839C12.3266 14.2843 12.3668 14.293 12.4039 14.3095C12.4415 14.3262 12.4751 14.3505 12.5026 14.3808C14.3478 16.4 15.3552 19.0326 15.3239 21.7535C16.1123 22.2361 16.6969 22.985 16.9691 23.8613C17.2413 24.7376 17.1827 25.6818 16.8042 26.5186C16.4301 25.6962 15.8008 25.0128 15.0076 24.5676C14.9592 24.8971 14.8699 25.2194 14.7419 25.5274C14.6977 25.6588 14.6091 25.7432 14.5205 25.7432H13.0853C13.0876 25.7589 13.0892 25.7747 13.0901 25.7906L13.0907 25.7942V25.8019C13.0912 25.8155 13.0912 25.8292 13.0907 25.8429C13.1104 35.3788 18.902 37.5433 19.3902 37.7088H19.5572C19.5998 36.9577 19.7386 35.9213 19.8739 34.9109C19.9671 34.2146 20.0587 33.5307 20.116 32.9611H20.8985C21.149 29.4532 21.4066 25.9551 21.6642 22.4569L21.6644 22.455L21.6645 22.454C21.994 17.9794 22.3235 13.5047 22.6381 9.00919H2.11998C2.06092 9.02073 2.06495 9.11734 2.06987 9.21516ZM12.2859 14.2839L12.2844 14.2839H12.2875L12.2859 14.2839Z" fill="#8047F8"/>
</svg>
